# This file uses centimeters as units for non-parametric coordinates.

v -0.500000 -0.500000 0.500000
v 0.500000 -0.500000 0.500000
v -0.500000 0.500000 0.500000
v 0.500000 0.500000 0.500000
v -0.500000 0.500000 -0.500000
v 0.500000 0.500000 -0.500000
v -0.500000 -0.500000 -0.500000
v 0.500000 -0.500000 -0.500000
vt 0.998155 0.001845
vt 0.998155 0.001845
vt 0.001845 0.001845
vt 0.001845 0.998155
vt 0.001845 0.001845
vt 0.998155 0.998155
vt 0.001845 0.001845
vt 0.998155 0.998155
vt 0.001845 0.998155
vt 0.998155 0.998155
vt 0.998155 0.001845
vt 0.998155 0.998155
vt 0.001845 0.001845
vt 0.001845 0.998155
vt 0.998155 0.001845
vt 0.001845 0.998155
vt 0.998155 0.998155
vt 0.001845 0.001845
vt 0.001845 0.998155
vt 0.998155 0.001845
vt 0.998155 0.001845
vt 0.001845 0.998155
vt 0.001845 0.001845
vt 0.998155 0.998155
vn 0.000000 0.000000 1.000000
vn 0.000000 0.000000 1.000000
vn 0.000000 0.000000 1.000000
vn 0.000000 0.000000 1.000000
vn 0.000000 0.000000 1.000000
vn 0.000000 0.000000 1.000000
vn 0.000000 1.000000 0.000000
vn 0.000000 1.000000 0.000000
vn 0.000000 1.000000 0.000000
vn 0.000000 1.000000 0.000000
vn 0.000000 1.000000 0.000000
vn 0.000000 1.000000 0.000000
vn 0.000000 0.000000 -1.000000
vn 0.000000 0.000000 -1.000000
vn 0.000000 0.000000 -1.000000
vn 0.000000 0.000000 -1.000000
vn 0.000000 0.000000 -1.000000
vn 0.000000 0.000000 -1.000000
vn 0.000000 -1.000000 0.000000
vn 0.000000 -1.000000 0.000000
vn 0.000000 -1.000000 0.000000
vn 0.000000 -1.000000 0.000000
vn 0.000000 -1.000000 0.000000
vn 0.000000 -1.000000 0.000000
vn 1.000000 0.000000 0.000000
vn 1.000000 0.000000 0.000000
vn 1.000000 0.000000 0.000000
vn 1.000000 0.000000 0.000000
vn 1.000000 0.000000 0.000000
vn 1.000000 0.000000 0.000000
vn -1.000000 0.000000 0.000000
vn -1.000000 0.000000 0.000000
vn -1.000000 0.000000 0.000000
vn -1.000000 0.000000 0.000000
vn -1.000000 0.000000 0.000000
vn -1.000000 0.000000 0.000000
f 1/18/1 2/2/2 3/16/3
f 3/16/4 2/2/5 4/24/6
f 3/3/7 4/15/8 5/22/9
f 5/22/10 4/15/11 6/6/12
f 5/5/13 6/21/14 7/19/15
f 7/19/16 6/21/17 8/8/18
f 7/7/19 8/20/20 1/9/21
f 1/9/22 8/20/23 2/10/24
f 2/23/25 8/11/26 4/4/27
f 4/4/28 8/11/29 6/12/30
f 7/13/31 1/1/32 5/14/33
f 5/14/34 1/1/35 3/17/36
